<svg width="70" height="12" viewBox="0 0 70 12" fill="none" xmlns="http://www.w3.org/2000/svg">
<path d="M4.33594 0.46875V9H2.58398V0.46875H4.33594ZM6.96094 0.46875V1.8457H0V0.46875H6.96094ZM9.50391 0V9H7.81641V0H9.50391ZM9.26367 5.60742H8.80078C8.80469 5.16602 8.86328 4.75977 8.97656 4.38867C9.08984 4.01367 9.25195 3.68945 9.46289 3.41602C9.67383 3.13867 9.92578 2.92383 10.2188 2.77148C10.5156 2.61914 10.8438 2.54297 11.2031 2.54297C11.5156 2.54297 11.7988 2.58789 12.0527 2.67773C12.3105 2.76367 12.5312 2.9043 12.7148 3.09961C12.9023 3.29102 13.0469 3.54297 13.1484 3.85547C13.25 4.16797 13.3008 4.54688 13.3008 4.99219V9H11.6016V4.98047C11.6016 4.69922 11.5605 4.47852 11.4785 4.31836C11.4004 4.1543 11.2852 4.03906 11.1328 3.97266C10.9844 3.90234 10.8008 3.86719 10.582 3.86719C10.3398 3.86719 10.1328 3.91211 9.96094 4.00195C9.79297 4.0918 9.6582 4.2168 9.55664 4.37695C9.45508 4.5332 9.38086 4.7168 9.33398 4.92773C9.28711 5.13867 9.26367 5.36523 9.26367 5.60742ZM18.0059 7.57031V4.74609C18.0059 4.54297 17.9727 4.36914 17.9062 4.22461C17.8398 4.07617 17.7363 3.96094 17.5957 3.87891C17.459 3.79688 17.2812 3.75586 17.0625 3.75586C16.875 3.75586 16.7129 3.78906 16.5762 3.85547C16.4395 3.91797 16.334 4.00977 16.2598 4.13086C16.1855 4.24805 16.1484 4.38672 16.1484 4.54688H14.4609C14.4609 4.27734 14.5234 4.02148 14.6484 3.7793C14.7734 3.53711 14.9551 3.32422 15.1934 3.14062C15.4316 2.95312 15.7148 2.80664 16.043 2.70117C16.375 2.5957 16.7461 2.54297 17.1562 2.54297C17.6484 2.54297 18.0859 2.625 18.4688 2.78906C18.8516 2.95312 19.1523 3.19922 19.3711 3.52734C19.5938 3.85547 19.7051 4.26562 19.7051 4.75781V7.4707C19.7051 7.81836 19.7266 8.10352 19.7695 8.32617C19.8125 8.54492 19.875 8.73633 19.957 8.90039V9H18.252C18.1699 8.82812 18.1074 8.61328 18.0645 8.35547C18.0254 8.09375 18.0059 7.83203 18.0059 7.57031ZM18.2285 5.13867L18.2402 6.09375H17.2969C17.0742 6.09375 16.8809 6.11914 16.7168 6.16992C16.5527 6.2207 16.418 6.29297 16.3125 6.38672C16.207 6.47656 16.1289 6.58203 16.0781 6.70312C16.0312 6.82422 16.0078 6.95703 16.0078 7.10156C16.0078 7.24609 16.041 7.37695 16.1074 7.49414C16.1738 7.60742 16.2695 7.69727 16.3945 7.76367C16.5195 7.82617 16.666 7.85742 16.834 7.85742C17.0879 7.85742 17.3086 7.80664 17.4961 7.70508C17.6836 7.60352 17.8281 7.47852 17.9297 7.33008C18.0352 7.18164 18.0898 7.04102 18.0938 6.9082L18.5391 7.62305C18.4766 7.7832 18.3906 7.94922 18.2812 8.12109C18.1758 8.29297 18.041 8.45508 17.877 8.60742C17.7129 8.75586 17.5156 8.87891 17.2852 8.97656C17.0547 9.07031 16.7812 9.11719 16.4648 9.11719C16.0625 9.11719 15.6973 9.03711 15.3691 8.87695C15.0449 8.71289 14.7871 8.48828 14.5957 8.20312C14.4082 7.91406 14.3145 7.58594 14.3145 7.21875C14.3145 6.88672 14.377 6.5918 14.502 6.33398C14.627 6.07617 14.8105 5.85938 15.0527 5.68359C15.2988 5.50391 15.6055 5.36914 15.9727 5.2793C16.3398 5.18555 16.7656 5.13867 17.25 5.13867H18.2285ZM22.7871 0V9H21.0938V0H22.7871ZM27.0996 9.11719C26.6074 9.11719 26.166 9.03906 25.7754 8.88281C25.3848 8.72266 25.0527 8.50195 24.7793 8.2207C24.5098 7.93945 24.3027 7.61328 24.1582 7.24219C24.0137 6.86719 23.9414 6.46875 23.9414 6.04688V5.8125C23.9414 5.33203 24.0098 4.89258 24.1465 4.49414C24.2832 4.0957 24.4785 3.75 24.7324 3.45703C24.9902 3.16406 25.3027 2.93945 25.6699 2.7832C26.0371 2.62305 26.4512 2.54297 26.9121 2.54297C27.3613 2.54297 27.7598 2.61719 28.1074 2.76562C28.4551 2.91406 28.7461 3.125 28.9805 3.39844C29.2188 3.67188 29.3984 4 29.5195 4.38281C29.6406 4.76172 29.7012 5.18359 29.7012 5.64844V6.35156H24.6621V5.22656H28.043V5.09766C28.043 4.86328 28 4.6543 27.9141 4.4707C27.832 4.2832 27.707 4.13477 27.5391 4.02539C27.3711 3.91602 27.1562 3.86133 26.8945 3.86133C26.6719 3.86133 26.4805 3.91016 26.3203 4.00781C26.1602 4.10547 26.0293 4.24219 25.9277 4.41797C25.8301 4.59375 25.7559 4.80078 25.7051 5.03906C25.6582 5.27344 25.6348 5.53125 25.6348 5.8125V6.04688C25.6348 6.30078 25.6699 6.53516 25.7402 6.75C25.8145 6.96484 25.918 7.15039 26.0508 7.30664C26.1875 7.46289 26.3516 7.58398 26.543 7.66992C26.7383 7.75586 26.959 7.79883 27.2051 7.79883C27.5098 7.79883 27.793 7.74023 28.0547 7.62305C28.3203 7.50195 28.5488 7.32031 28.7402 7.07812L29.5605 7.96875C29.4277 8.16016 29.2461 8.34375 29.0156 8.51953C28.7891 8.69531 28.5156 8.83984 28.1953 8.95312C27.875 9.0625 27.5098 9.11719 27.0996 9.11719ZM34.0898 7.24805C34.0898 7.12695 34.0547 7.01758 33.9844 6.91992C33.9141 6.82227 33.7832 6.73242 33.5918 6.65039C33.4043 6.56445 33.1328 6.48633 32.7773 6.41602C32.457 6.3457 32.1582 6.25781 31.8809 6.15234C31.6074 6.04297 31.3691 5.91211 31.166 5.75977C30.9668 5.60742 30.8105 5.42773 30.6973 5.2207C30.584 5.00977 30.5273 4.76953 30.5273 4.5C30.5273 4.23438 30.584 3.98438 30.6973 3.75C30.8145 3.51562 30.9805 3.30859 31.1953 3.12891C31.4141 2.94531 31.6797 2.80273 31.9922 2.70117C32.3086 2.5957 32.6641 2.54297 33.0586 2.54297C33.6094 2.54297 34.082 2.63086 34.4766 2.80664C34.875 2.98242 35.1797 3.22461 35.3906 3.5332C35.6055 3.83789 35.7129 4.18555 35.7129 4.57617H34.0254C34.0254 4.41211 33.9902 4.26562 33.9199 4.13672C33.8535 4.00391 33.748 3.90039 33.6035 3.82617C33.4629 3.74805 33.2793 3.70898 33.0527 3.70898C32.8652 3.70898 32.7031 3.74219 32.5664 3.80859C32.4297 3.87109 32.3242 3.95703 32.25 4.06641C32.1797 4.17188 32.1445 4.28906 32.1445 4.41797C32.1445 4.51562 32.1641 4.60352 32.2031 4.68164C32.2461 4.75586 32.3145 4.82422 32.4082 4.88672C32.502 4.94922 32.623 5.00781 32.7715 5.0625C32.9238 5.11328 33.1113 5.16016 33.334 5.20312C33.791 5.29688 34.1992 5.41992 34.5586 5.57227C34.918 5.7207 35.2031 5.92383 35.4141 6.18164C35.625 6.43555 35.7305 6.76953 35.7305 7.18359C35.7305 7.46484 35.668 7.72266 35.543 7.95703C35.418 8.19141 35.2383 8.39648 35.0039 8.57227C34.7695 8.74414 34.4883 8.87891 34.1602 8.97656C33.8359 9.07031 33.4707 9.11719 33.0645 9.11719C32.4746 9.11719 31.9746 9.01172 31.5645 8.80078C31.1582 8.58984 30.8496 8.32227 30.6387 7.99805C30.4316 7.66992 30.3281 7.33398 30.3281 6.99023H31.9277C31.9355 7.2207 31.9941 7.40625 32.1035 7.54688C32.2168 7.6875 32.3594 7.78906 32.5312 7.85156C32.707 7.91406 32.8965 7.94531 33.0996 7.94531C33.3184 7.94531 33.5 7.91602 33.6445 7.85742C33.7891 7.79492 33.8984 7.71289 33.9727 7.61133C34.0508 7.50586 34.0898 7.38477 34.0898 7.24805ZM39.5508 9H37.6934L37.7051 7.62891H39.5508C40.0117 7.62891 40.4004 7.52539 40.7168 7.31836C41.0332 7.10742 41.2715 6.80078 41.4316 6.39844C41.5957 5.99609 41.6777 5.50977 41.6777 4.93945V4.52344C41.6777 4.08594 41.6309 3.70117 41.5371 3.36914C41.4473 3.03711 41.3125 2.75781 41.1328 2.53125C40.9531 2.30469 40.7324 2.13477 40.4707 2.02148C40.209 1.9043 39.9082 1.8457 39.5684 1.8457H37.6582V0.46875H39.5684C40.1387 0.46875 40.6602 0.566406 41.1328 0.761719C41.6094 0.953125 42.0215 1.22852 42.3691 1.58789C42.7168 1.94727 42.9844 2.37695 43.1719 2.87695C43.3633 3.37305 43.459 3.92578 43.459 4.53516V4.93945C43.459 5.54492 43.3633 6.09766 43.1719 6.59766C42.9844 7.09766 42.7168 7.52734 42.3691 7.88672C42.0254 8.24219 41.6133 8.51758 41.1328 8.71289C40.6562 8.9043 40.1289 9 39.5508 9ZM38.6895 0.46875V9H36.9316V0.46875H38.6895ZM46.4121 2.66016V9H44.7188V2.66016H46.4121ZM44.6133 1.00781C44.6133 0.761719 44.6992 0.558594 44.8711 0.398438C45.043 0.238281 45.2734 0.158203 45.5625 0.158203C45.8477 0.158203 46.0762 0.238281 46.248 0.398438C46.4238 0.558594 46.5117 0.761719 46.5117 1.00781C46.5117 1.25391 46.4238 1.45703 46.248 1.61719C46.0762 1.77734 45.8477 1.85742 45.5625 1.85742C45.2734 1.85742 45.043 1.77734 44.8711 1.61719C44.6992 1.45703 44.6133 1.25391 44.6133 1.00781ZM49.4941 3.87891V11.4375H47.8066V2.66016H49.3711L49.4941 3.87891ZM53.5078 5.75977V5.88281C53.5078 6.34375 53.4531 6.77148 53.3438 7.16602C53.2383 7.56055 53.082 7.9043 52.875 8.19727C52.668 8.48633 52.4102 8.71289 52.1016 8.87695C51.7969 9.03711 51.4453 9.11719 51.0469 9.11719C50.6602 9.11719 50.3242 9.03906 50.0391 8.88281C49.7539 8.72656 49.5137 8.50781 49.3184 8.22656C49.127 7.94141 48.9727 7.61133 48.8555 7.23633C48.7383 6.86133 48.6484 6.45898 48.5859 6.0293V5.70703C48.6484 5.24609 48.7383 4.82422 48.8555 4.44141C48.9727 4.05469 49.127 3.7207 49.3184 3.43945C49.5137 3.1543 49.752 2.93359 50.0332 2.77734C50.3184 2.62109 50.6523 2.54297 51.0352 2.54297C51.4375 2.54297 51.791 2.61914 52.0957 2.77148C52.4043 2.92383 52.6621 3.14258 52.8691 3.42773C53.0801 3.71289 53.2383 4.05273 53.3438 4.44727C53.4531 4.8418 53.5078 5.2793 53.5078 5.75977ZM51.8145 5.88281V5.75977C51.8145 5.49023 51.791 5.24219 51.7441 5.01562C51.7012 4.78516 51.6309 4.58398 51.5332 4.41211C51.4395 4.24023 51.3145 4.10742 51.1582 4.01367C51.0059 3.91602 50.8203 3.86719 50.6016 3.86719C50.3711 3.86719 50.1738 3.9043 50.0098 3.97852C49.8496 4.05273 49.7188 4.16016 49.6172 4.30078C49.5156 4.44141 49.4395 4.60938 49.3887 4.80469C49.3379 5 49.3066 5.2207 49.2949 5.4668V6.28125C49.3145 6.57031 49.3691 6.83008 49.459 7.06055C49.5488 7.28711 49.6875 7.4668 49.875 7.59961C50.0625 7.73242 50.3086 7.79883 50.6133 7.79883C50.8359 7.79883 51.0234 7.75 51.1758 7.65234C51.3281 7.55078 51.4512 7.41211 51.5449 7.23633C51.6426 7.06055 51.7109 6.85742 51.75 6.62695C51.793 6.39648 51.8145 6.14844 51.8145 5.88281ZM57.9785 7.57031V4.74609C57.9785 4.54297 57.9453 4.36914 57.8789 4.22461C57.8125 4.07617 57.709 3.96094 57.5684 3.87891C57.4316 3.79688 57.2539 3.75586 57.0352 3.75586C56.8477 3.75586 56.6855 3.78906 56.5488 3.85547C56.4121 3.91797 56.3066 4.00977 56.2324 4.13086C56.1582 4.24805 56.1211 4.38672 56.1211 4.54688H54.4336C54.4336 4.27734 54.4961 4.02148 54.6211 3.7793C54.7461 3.53711 54.9277 3.32422 55.166 3.14062C55.4043 2.95312 55.6875 2.80664 56.0156 2.70117C56.3477 2.5957 56.7188 2.54297 57.1289 2.54297C57.6211 2.54297 58.0586 2.625 58.4414 2.78906C58.8242 2.95312 59.125 3.19922 59.3438 3.52734C59.5664 3.85547 59.6777 4.26562 59.6777 4.75781V7.4707C59.6777 7.81836 59.6992 8.10352 59.7422 8.32617C59.7852 8.54492 59.8477 8.73633 59.9297 8.90039V9H58.2246C58.1426 8.82812 58.0801 8.61328 58.0371 8.35547C57.998 8.09375 57.9785 7.83203 57.9785 7.57031ZM58.2012 5.13867L58.2129 6.09375H57.2695C57.0469 6.09375 56.8535 6.11914 56.6895 6.16992C56.5254 6.2207 56.3906 6.29297 56.2852 6.38672C56.1797 6.47656 56.1016 6.58203 56.0508 6.70312C56.0039 6.82422 55.9805 6.95703 55.9805 7.10156C55.9805 7.24609 56.0137 7.37695 56.0801 7.49414C56.1465 7.60742 56.2422 7.69727 56.3672 7.76367C56.4922 7.82617 56.6387 7.85742 56.8066 7.85742C57.0605 7.85742 57.2812 7.80664 57.4688 7.70508C57.6562 7.60352 57.8008 7.47852 57.9023 7.33008C58.0078 7.18164 58.0625 7.04102 58.0664 6.9082L58.5117 7.62305C58.4492 7.7832 58.3633 7.94922 58.2539 8.12109C58.1484 8.29297 58.0137 8.45508 57.8496 8.60742C57.6855 8.75586 57.4883 8.87891 57.2578 8.97656C57.0273 9.07031 56.7539 9.11719 56.4375 9.11719C56.0352 9.11719 55.6699 9.03711 55.3418 8.87695C55.0176 8.71289 54.7598 8.48828 54.5684 8.20312C54.3809 7.91406 54.2871 7.58594 54.2871 7.21875C54.2871 6.88672 54.3496 6.5918 54.4746 6.33398C54.5996 6.07617 54.7832 5.85938 55.0254 5.68359C55.2715 5.50391 55.5781 5.36914 55.9453 5.2793C56.3125 5.18555 56.7383 5.13867 57.2227 5.13867H58.2012Z" fill="#102211"/>
<path d="M61.0605 8.18555C61.0605 7.93555 61.1465 7.72656 61.3184 7.55859C61.4941 7.39062 61.7266 7.30664 62.0156 7.30664C62.3047 7.30664 62.5352 7.39062 62.707 7.55859C62.8828 7.72656 62.9707 7.93555 62.9707 8.18555C62.9707 8.43555 62.8828 8.64453 62.707 8.8125C62.5352 8.98047 62.3047 9.06445 62.0156 9.06445C61.7266 9.06445 61.4941 8.98047 61.3184 8.8125C61.1465 8.64453 61.0605 8.43555 61.0605 8.18555Z" fill="#CAE0C9"/>
<path d="M69.1289 9V10.2832H63.8086V9H69.1289Z" fill="#09090B"/>
</svg>
